<svg enable-background="new 0 0 204 56" height="56" viewBox="0 0 204 56" width="204" xmlns="http://www.w3.org/2000/svg" xmlns:xlink="http://www.w3.org/1999/xlink"><linearGradient id="a"><stop offset="0" stop-color="#4a4949"/><stop offset="1" stop-color="#666565"/></linearGradient><linearGradient id="b" gradientUnits="userSpaceOnUse" x1="8.35" x2="8.35" xlink:href="#a" y1="36.6" y2="4.6606"/><linearGradient id="c" gradientUnits="userSpaceOnUse" x1="27.6" x2="27.6" xlink:href="#a" y1="36.612" y2="4.0193"/><linearGradient id="d"><stop offset="0" stop-color="#0d48a1"/><stop offset="1" stop-color="#20ade2"/></linearGradient><linearGradient id="e" gradientUnits="userSpaceOnUse" x1="81.5" x2="81.5" xlink:href="#d" y1="35.8367" y2="3.6367"/><linearGradient id="f" gradientUnits="userSpaceOnUse" x1="54.2632" x2="54.2632" xlink:href="#d" y1="36.6125" y2="10.3345"/><linearGradient id="g" gradientUnits="userSpaceOnUse" x1="105.95" x2="105.95" xlink:href="#d" y1="36.58" y2="12.1256"/><linearGradient id="h" gradientUnits="userSpaceOnUse" x1="126.2" x2="126.2" xlink:href="#d" y1="35.8396" y2="12.1456"/><linearGradient id="i" gradientUnits="userSpaceOnUse" x1="140.55" x2="140.55" xlink:href="#d" y1="35.8367" y2="3.996"/><linearGradient id="j" gradientUnits="userSpaceOnUse" x1="151.4" x2="151.4" xlink:href="#d" y1="35.8367" y2="12.1957"/><linearGradient id="k" gradientUnits="userSpaceOnUse" x1="167.4505" x2="167.4505" xlink:href="#d" y1="35.8367" y2="12.1701"/><linearGradient id="l" gradientUnits="userSpaceOnUse" x1="192" x2="192" xlink:href="#d" y1="44.87" y2="12.0738"/><path d="m10.6 28.8s.2 2.1-1.9 2.1c-2.4 0-4.3-2.8-4.3-2.8l-4.4 4s3.7 4.5 8.8 4.5c5.4 0 7.9-3.5 7.9-5.8v-26.1h-6.1z" fill="url(#b)"/><path d="m25.5 13.5c-1.5-1.6 2.1-6.8 7.3-.5l4.2-4s-3.8-5-9.1-5c-6.2 0-10.9 7-7.7 11.3 4.1 5.4 11.3 9.4 11.3 12.2 0 1.6-.9 3.2-3.1 3.2-4.6 0-5.6-4-5.6-4l-5 3s3.4 6.8 9.6 6.8 10-2.9 10-9.6c0-4.7-9.3-10.6-11.9-13.4z" fill="url(#c)"/><path d="m53.1 0c-5.1-.2-11.3 4.7-11.3 4.7l11.8 11.6z" fill="#1faae0"/><path d="m56.3 2.3-.6 16.2 6.8-14.5s-2.1-1.4-6.2-1.7z" fill="#0e4da4"/><path d="m64.4 6-2.7 4.8s3.9 2.5 3.9 2.9 3.9-3.9 3.9-3.9-3.5-3.5-5.1-3.8z" fill="#1d9fd9"/><path d="m83.2 12.2c-3.2 0-6 2.5-6.4 2.8v-11.4h-5.6v32.2h6s0-13.7 0-14.3c.1-2.1 2.1-4.1 4.7-4.1 2.5 0 3.9 2.5 4 4.3v14h5.9v-16s-.2-7.6-8.6-7.5z" fill="url(#e)"/><path d="m52.2 30.5c-11.7-4.5-5.5-16.8-5.5-16.8l-4.3-3.5c-7.5 10.3-1.4 23.4 7.6 25.6 13.4 3.4 19.5-5.4 19.5-5.4l-3.9-3.8c-4.5 3.8-9.1 5.6-13.4 3.9z" fill="url(#f)"/><path d="m111.9 15c0-.6-2.6-2.8-7.8-2.9-3.8-.1-10.1 4.2-10.1 10.8 0 10.7 7 13.6 11.2 13.6s6.7-3.1 6.7-3.1v2.3h6v-23.1h-6zm-6 16.2c-2.8 0-6.8-2-6.5-7.7.2-4.2 3.5-6.2 6.5-6.2 3.6 0 6.6 2.5 6.6 7.1 0 5.7-4.9 6.8-6.6 6.8z" fill="url(#g)"/><path d="m124.9 15.2v-2.5h-4.9v23.1h5.8v-12.3c.1-5.9 2.7-7.2 5-5.9l1.6-5c0 .1-3.7-2.2-7.5 2.6z" fill="url(#h)"/><path d="m143.1 4h-5.9v8.8h-2.8v4.7h2.8v18.3h6v-18.3h3.5v-4.7h-3.5z" fill="url(#i)"/><path d="m148.5 12.2h5.8v23.6h-5.8z" fill="url(#j)"/><path d="m162.9 14.9v-2.4h-5.6v23.2h5.7v-12.7c-.1-7.5 9.5-7.8 9.2-1l-.2 13.7h5.6s0-12.4 0-16.5c.1-6-7.2-10-14.7-4.3z" fill="url(#k)"/><path d="m198.3 12.7v2.7s-2.5-3.3-7.4-3.3c-5.4 0-11.2 4.3-10.7 13.4.4 7.5 11.1 14.6 17.9 7.3 0 0 1.9 7-6.1 7-4.9 0-5.7-2.1-5.7-2.1h-6.2c2 8.1 14.9 8.9 20 5 4.1-3.1 3.6-6.8 3.8-10v-19.9zm-5.9 17.9c-2.5 0-6.5-1.4-6.5-6.6 0-4.9 3.7-6.5 6.2-6.5 3.3 0 6.6 1.7 6.6 6.8-.1 4.6-3.8 6.3-6.3 6.3z" fill="url(#l)"/><g fill="#666565"><path d="m106 45v-4.2h-.8v-1h.8v-.4c0-.6.2-1.1.5-1.4s.8-.5 1.4-.5c.2 0 .4 0 .7.1v1.1c-.1 0-.3 0-.4 0-.5 0-.8.3-.8.8v.4h1v1h-1v4.2z"/><path d="m108.8 42.3c0-.5.1-1 .3-1.4s.5-.7.9-1c.4-.2.8-.3 1.3-.3.7 0 1.3.2 1.7.7.5.4.7 1 .8 1.8v.4c0 .8-.2 1.5-.7 2s-1.1.7-1.8.7-1.4-.2-1.8-.7c-.5-.6-.7-1.3-.7-2.2zm1.4.1c0 .5.1.9.3 1.2s.5.4.8.4.6-.1.8-.4.3-.7.3-1.3c0-.5-.1-.9-.3-1.1-.2-.3-.5-.4-.8-.4s-.6.1-.8.4c-.2.2-.3.7-.3 1.2z"/><path d="m117.4 41.1c-.2 0-.4 0-.5 0-.5 0-.9.2-1.1.5v3.5h-1.4v-5.3h1.3v.6c.3-.5.7-.7 1.2-.7.2 0 .3 0 .4.1z"/><path d="m142.1 49 2.9-9.6h2.9l-4.5 12.8h-2.8l-4.4-12.8h2.9z"/><path d="m153.9 51.2c-.6.8-1.5 1.1-2.6 1.1-1 0-1.8-.3-2.3-.9s-.8-1.4-.8-2.6v-6.2h2.5v6.2c0 1 .5 1.5 1.4 1.5s1.5-.3 1.8-.9v-6.7h2.5v9.5h-2.4z"/><path d="m162.2 52.3c-1.4 0-2.5-.4-3.4-1.3s-1.3-2-1.3-3.4v-.2c0-1 .2-1.8.6-2.6s.9-1.3 1.6-1.7 1.4-.6 2.3-.6c1.3 0 2.3.4 3.1 1.2.7.8 1.1 2 1.1 3.5v1h-6.1c.1.6.3 1.1.7 1.5s.9.6 1.6.6c1 0 1.7-.4 2.3-1.1l1.2 1.4c-.4.5-.9 1-1.5 1.3s-1.4.4-2.2.4zm-.2-7.8c-.5 0-.9.2-1.2.5s-.5.8-.6 1.5h3.5v-.2c0-.6-.2-1-.5-1.3s-.7-.5-1.2-.5z"/><path d="m167.3 50.9c0-.4.1-.7.4-1s.6-.4 1-.4.8.1 1 .4c.3.3.4.6.4 1s-.1.7-.4 1-.6.4-1 .4-.8-.1-1-.4c-.3-.3-.4-.6-.4-1z"/><path d="m174.6 42.6v10c0 1-.3 1.9-.8 2.4-.6.6-1.4.9-2.4.9-.4 0-.9 0-1.3-.1v-2c.3.1.6.1.8.1.8 0 1.2-.4 1.2-1.2v-10h2.5zm-2.7-2.4c0-.4.1-.7.4-.9s.6-.4 1-.4.8.1 1 .4c.3.2.4.6.4.9 0 .4-.1.7-.4.9s-.6.4-1 .4-.8-.1-1-.4-.4-.5-.4-.9z"/><path d="m181.3 49.5c0-.3-.2-.6-.5-.7-.3-.2-.8-.3-1.5-.5-2.3-.5-3.4-1.4-3.4-2.9 0-.8.3-1.5 1.1-2.1.7-.6 1.6-.8 2.7-.8 1.2 0 2.2.3 2.9.9s1.1 1.3 1.1 2.2h-2.5c0-.4-.1-.7-.4-.9-.2-.2-.6-.4-1.1-.4-.4 0-.8.1-1 .3s-.4.4-.4.7.1.5.4.7.7.3 1.3.4 1.2.3 1.6.4c1.3.5 2 1.3 2 2.6 0 .9-.4 1.6-1.1 2.1s-1.7.8-2.9.8c-.8 0-1.5-.1-2.1-.4s-1.1-.7-1.5-1.2-.5-1-.5-1.6h2.4c0 .5.2.8.5 1s.7.4 1.2.4.9-.1 1.1-.3c.5-.1.6-.4.6-.7z"/><path d="m132.1 38.9-.3.5-4.9 8.6-.4.6-.4-.6-4.9-8.6-.3-.5h-3l8.6 15 8.6-15z"/><path d="m122 38.9 4.5 7.9 4.5-7.9h-2.8l-1.7 3.1-1.7-3.1z"/></g></svg>